<svg width="400" height="400" viewBox="0 0 400 400" xmlns="http://www.w3.org/2000/svg">
  <!-- Tire (outer black part) -->
  <circle cx="200" cy="200" r="190" fill="#1a1a1a"/>
  <circle cx="200" cy="200" r="180" fill="#2a2a2a"/>
  
  <!-- Tire tread pattern -->
  <g transform="translate(200,200)">
    <g id="tread">
      <rect x="-8" y="-190" width="16" height="30" fill="#0a0a0a"/>
    </g>
    <use href="#tread" transform="rotate(15)"/>
    <use href="#tread" transform="rotate(30)"/>
    <use href="#tread" transform="rotate(45)"/>
    <use href="#tread" transform="rotate(60)"/>
    <use href="#tread" transform="rotate(75)"/>
    <use href="#tread" transform="rotate(90)"/>
    <use href="#tread" transform="rotate(105)"/>
    <use href="#tread" transform="rotate(120)"/>
    <use href="#tread" transform="rotate(135)"/>
    <use href="#tread" transform="rotate(150)"/>
    <use href="#tread" transform="rotate(165)"/>
    <use href="#tread" transform="rotate(180)"/>
    <use href="#tread" transform="rotate(195)"/>
    <use href="#tread" transform="rotate(210)"/>
    <use href="#tread" transform="rotate(225)"/>
    <use href="#tread" transform="rotate(240)"/>
    <use href="#tread" transform="rotate(255)"/>
    <use href="#tread" transform="rotate(270)"/>
    <use href="#tread" transform="rotate(285)"/>
    <use href="#tread" transform="rotate(300)"/>
    <use href="#tread" transform="rotate(315)"/>
    <use href="#tread" transform="rotate(330)"/>
    <use href="#tread" transform="rotate(345)"/>
  </g>
  
  <!-- Inner rim (silver/gray part) -->
  <circle cx="200" cy="200" r="150" fill="#d0d0d0"/>
  <circle cx="200" cy="200" r="145" fill="#e0e0e0"/>
  <circle cx="200" cy="200" r="140" fill="#f0f0f0"/>
  
  <!-- 6-spoke design -->
  <g transform="translate(200,200)">
    <!-- Spokes -->
    <g id="spoke">
      <path d="M 0,-140 L -35,-35 L 0,0 L 35,-35 Z" fill="#c0c0c0"/>
      <path d="M 0,-140 L -30,-40 L 0,-5 L 30,-40 Z" fill="#d8d8d8"/>
    </g>
    <use href="#spoke" transform="rotate(60)"/>
    <use href="#spoke" transform="rotate(120)"/>
    <use href="#spoke" transform="rotate(180)"/>
    <use href="#spoke" transform="rotate(240)"/>
    <use href="#spoke" transform="rotate(300)"/>
    
    <!-- Dark areas between spokes -->
    <g id="dark-area">
      <path d="M 30,-40 L 100,-80 L 100,-120 L 35,-35 Z" fill="#1a1a1a" opacity="0.9"/>
    </g>
    <use href="#dark-area" transform="rotate(60)"/>
    <use href="#dark-area" transform="rotate(120)"/>
    <use href="#dark-area" transform="rotate(180)"/>
    <use href="#dark-area" transform="rotate(240)"/>
    <use href="#dark-area" transform="rotate(300)"/>
  </g>
  
  <!-- Center hub -->
  <circle cx="200" cy="200" r="40" fill="#808080"/>
  <circle cx="200" cy="200" r="35" fill="#909090"/>
  <circle cx="200" cy="200" r="30" fill="#a0a0a0"/>
  
  <!-- Lug nuts -->
  <g transform="translate(200,200)">
    <g id="lug">
      <circle cx="0" cy="-25" r="4" fill="#606060"/>
      <circle cx="0" cy="-25" r="3" fill="#707070"/>
    </g>
    <use href="#lug" transform="rotate(60)"/>
    <use href="#lug" transform="rotate(120)"/>
    <use href="#lug" transform="rotate(180)"/>
    <use href="#lug" transform="rotate(240)"/>
    <use href="#lug" transform="rotate(300)"/>
  </g>
  
  <!-- Center cap -->
  <circle cx="200" cy="200" r="15" fill="#707070"/>
  <circle cx="200" cy="200" r="12" fill="#808080"/>
</svg>